<svg width="256" height="256" viewBox="0 0 256 256" fill="none" xmlns="http://www.w3.org/2000/svg">
<path d="M128 0C57.308 0 0 57.308 0 128s57.308 128 128 128 128-57.308 128-128S198.692 0 128 0zm0 230.4c-56.512 0-102.4-45.888-102.4-102.4S71.488 25.6 128 25.6s102.4 45.888 102.4 102.4-45.888 102.4-102.4 102.4z" fill="#30C8C8"/>
<path d="M128 51.2c-42.384 0-76.8 34.416-76.8 76.8s34.416 76.8 76.8 76.8 76.8-34.416 76.8-76.8-34.416-76.8-76.8-76.8zm0 122.88c-25.344 0-45.888-20.544-45.888-45.888S102.656 82.112 128 82.112s45.888 20.544 45.888 45.888-20.544 45.888-45.888 45.888z" fill="#FFFFFF"/>
<path d="M128 96c-17.673 0-32 14.327-32 32s14.327 32 32 32 32-14.327 32-32-14.327-32-32-32z" fill="#30C8C8"/>
</svg>